<svg width="48" height="48" viewBox="0 0 48 48" fill="none" xmlns="http://www.w3.org/2000/svg">
<rect width="48" height="48" rx="13" fill="#0052CC"/>
<mask id="mask0_940_1217" style="mask-type:alpha" maskUnits="userSpaceOnUse" x="12" y="12" width="24" height="24">
<rect x="12" y="12" width="24" height="24" fill="#D9D9D9"/>
</mask>
<g mask="url(#mask0_940_1217)">
<path d="M20.0001 33C19.7167 33 19.4792 32.9042 19.2876 32.7125C19.0959 32.5208 19.0001 32.2833 19.0001 32V29.925C17.4501 29.7083 16.1376 29.0625 15.0626 27.9875C13.9876 26.9125 13.3334 25.625 13.1001 24.125C13.0501 23.8417 13.1167 23.5833 13.3001 23.35C13.4834 23.1167 13.7167 23 14.0001 23C14.2834 23 14.5251 23.1125 14.7251 23.3375C14.9251 23.5625 15.0584 23.825 15.1251 24.125C15.3751 25.2417 15.9501 26.1667 16.8501 26.9C17.7501 27.6333 18.8001 28 20.0001 28H20.2501C20.3334 28 20.4167 27.9917 20.5001 27.975C20.7167 28.3083 20.9501 28.6208 21.2001 28.9125C21.4501 29.2042 21.7167 29.475 22.0001 29.725C21.8334 29.775 21.6709 29.8125 21.5126 29.8375C21.3542 29.8625 21.1834 29.8917 21.0001 29.925V32C21.0001 32.2833 20.9042 32.5208 20.7126 32.7125C20.5209 32.9042 20.2834 33 20.0001 33ZM28.0001 26C27.1667 26 26.4584 25.7083 25.8751 25.125C25.2917 24.5417 25.0001 23.8333 25.0001 23V17C25.0001 16.1667 25.2917 15.4583 25.8751 14.875C26.4584 14.2917 27.1667 14 28.0001 14C28.8334 14 29.5417 14.2917 30.1251 14.875C30.7084 15.4583 31.0001 16.1667 31.0001 17V23C31.0001 23.8333 30.7084 24.5417 30.1251 25.125C29.5417 25.7083 28.8334 26 28.0001 26ZM28.0001 24C28.2834 24 28.5209 23.9042 28.7126 23.7125C28.9042 23.5208 29.0001 23.2833 29.0001 23V17C29.0001 16.7167 28.9042 16.4792 28.7126 16.2875C28.5209 16.0958 28.2834 16 28.0001 16C27.7167 16 27.4792 16.0958 27.2876 16.2875C27.0959 16.4792 27.0001 16.7167 27.0001 17V23C27.0001 23.2833 27.0959 23.5208 27.2876 23.7125C27.4792 23.9042 27.7167 24 28.0001 24ZM19.5001 25.95C18.7834 25.8167 18.1876 25.475 17.7126 24.925C17.2376 24.375 17.0001 23.7333 17.0001 23V17C17.0001 16.1667 17.2917 15.4583 17.8751 14.875C18.4584 14.2917 19.1667 14 20.0001 14C20.8334 14 21.5417 14.2917 22.1251 14.875C22.7084 15.4583 23.0001 16.1667 23.0001 17V21.175C22.8334 21.1083 22.6709 21.0625 22.5126 21.0375C22.3542 21.0125 22.1834 21 22.0001 21C21.1834 21 20.4917 21.2875 19.9251 21.8625C19.3584 22.4375 19.0751 23.1333 19.0751 23.95C19.0751 24.2833 19.1167 24.6167 19.2001 24.95C19.2834 25.2833 19.3834 25.6167 19.5001 25.95ZM28.0001 28C29.2001 28 30.2501 27.6333 31.1501 26.9C32.0501 26.1667 32.6251 25.2417 32.8751 24.125C32.9417 23.825 33.0751 23.5625 33.2751 23.3375C33.4751 23.1125 33.7167 23 34.0001 23C34.2834 23 34.5167 23.1167 34.7001 23.35C34.8834 23.5833 34.9501 23.8417 34.9001 24.125C34.6667 25.625 34.0126 26.9125 32.9376 27.9875C31.8626 29.0625 30.5501 29.7083 29.0001 29.925V32C29.0001 32.2833 28.9042 32.5208 28.7126 32.7125C28.5209 32.9042 28.2834 33 28.0001 33C27.7167 33 27.4792 32.9042 27.2876 32.7125C27.0959 32.5208 27.0001 32.2833 27.0001 32V29.925C25.4501 29.7083 24.1376 29.0625 23.0626 27.9875C21.9876 26.9125 21.3334 25.625 21.1001 24.125C21.0501 23.8417 21.1167 23.5833 21.3001 23.35C21.4834 23.1167 21.7167 23 22.0001 23C22.2834 23 22.5251 23.1125 22.7251 23.3375C22.9251 23.5625 23.0584 23.825 23.1251 24.125C23.3751 25.2417 23.9501 26.1667 24.8501 26.9C25.7501 27.6333 26.8001 28 28.0001 28Z" fill="white"/>
</g>
</svg>
