<svg width="65" height="65" viewBox="0 0 65 65" fill="none" xmlns="http://www.w3.org/2000/svg">
<rect width="65" height="65" rx="14" fill="#F5F6FF"/>
<mask id="mask0_896_2774" style="mask-type:alpha" maskUnits="userSpaceOnUse" x="5" y="5" width="55" height="55">
<rect x="5" y="5" width="55" height="55" fill="#D9D9D9"/>
</mask>
<g mask="url(#mask0_896_2774)">
<path d="M14.0146 43.3013C13.7027 43.2114 13.4716 43.0304 13.3215 42.7582C13.1713 42.486 13.1412 42.1938 13.2312 41.8814C13.3212 41.5691 13.5019 41.3382 13.7736 41.1886C14.0452 41.0391 14.337 41.0093 14.6489 41.0991L17.1054 41.8067L22.1308 24.3591C22.9595 21.482 24.5987 19.2138 27.0485 17.5544C29.4987 15.8952 32.1984 15.2 35.1478 15.4687L35.4942 14.2658C35.6705 13.654 36.0338 13.1956 36.5843 12.8907C37.1349 12.5855 37.7153 12.5207 38.3257 12.6965C38.9361 12.8723 39.3948 13.2364 39.702 13.7887C40.0092 14.3407 40.0747 14.9226 39.8985 15.5344L39.552 16.7373C42.1925 18.0785 44.1088 20.1033 45.301 22.8117C46.4928 25.5199 46.6743 28.3125 45.8457 31.1896L40.8203 48.6372L43.2768 49.3448C43.5887 49.4346 43.8198 49.6156 43.9699 49.8878C44.1202 50.1597 44.1503 50.4519 44.0602 50.7646C43.9703 51.077 43.7895 51.3079 43.5179 51.4574C43.2462 51.6069 42.9545 51.6368 42.6425 51.5469L14.0146 43.3013ZM26.6621 53.181C25.6817 52.8987 24.9454 52.3094 24.4531 51.4132C23.9605 50.5169 23.855 49.5797 24.1367 48.6016L31.2518 50.6509C30.968 51.6364 30.3771 52.375 29.479 52.8667C28.5814 53.3586 27.6424 53.4634 26.6621 53.181ZM19.3076 42.441L38.6181 48.0029L43.6435 30.5554C44.4145 27.8787 44.1306 25.3294 42.7919 22.9076C41.4532 20.4857 39.4457 18.8894 36.7694 18.1185C34.093 17.3477 31.544 17.6316 29.1221 18.9703C26.7003 20.309 25.1039 22.3167 24.3329 24.9934L19.3076 42.441ZM15.8119 22.4932C15.4841 22.3988 15.2492 22.2027 15.1072 21.9051C14.9653 21.607 14.9519 21.2898 15.0671 20.9533C15.8908 18.6678 17.0693 16.6246 18.6028 14.8237C20.1366 13.023 21.8937 11.5455 23.874 10.3912C24.1929 10.2295 24.5117 10.1762 24.8305 10.2315C25.1497 10.2865 25.3868 10.4694 25.5416 10.7803C25.6966 11.0909 25.7218 11.3962 25.617 11.6964C25.5124 11.9961 25.2996 12.2314 24.9786 12.402C23.2606 13.4084 21.7424 14.6878 20.424 16.2402C19.1055 17.793 18.0768 19.5651 17.3378 21.5566C17.1942 21.8853 16.9859 22.1471 16.7128 22.3419C16.4395 22.537 16.1392 22.5875 15.8119 22.4932ZM52.2105 32.977C51.8688 32.8786 51.6342 32.6741 51.5066 32.3635C51.3789 32.0532 51.3418 31.7208 51.395 31.3661C51.8286 29.2866 51.9053 27.248 51.6249 25.2502C51.3442 23.2523 50.7441 21.3704 49.8247 19.6043C49.633 19.2887 49.5631 18.9649 49.615 18.6329C49.6672 18.3013 49.8415 18.0453 50.1379 17.8648C50.4345 17.6839 50.7375 17.664 51.047 17.8052C51.3565 17.9464 51.6032 18.1703 51.7872 18.4769C52.8502 20.5077 53.5541 22.6865 53.8991 25.0133C54.2438 27.3396 54.157 29.6895 53.6387 32.063C53.5573 32.4092 53.3769 32.6706 53.0974 32.8473C52.8181 33.0236 52.5225 33.0668 52.2105 32.977Z" fill="#0052CC"/>
</g>
</svg>
